<svg xmlns="http://www.w3.org/2000/svg" viewBox="0 0 512 512">
  <path fill="#78BE20" d="M256 0C114.6 0 0 114.6 0 256s114.6 256 256 256 256-114.6 256-256S397.4 0 256 0zm0 472c-119.3 0-216-96.7-216-216S136.7 40 256 40s216 96.7 216 216-96.7 216-216 216z"/>
  <path fill="#78BE20" d="M256 128c-18.4 0-33.3 46.1-33.3 103s14.9 103 33.3 103 33.3-46.1 33.3-103-14.9-103-33.3-103z"/>
  <path fill="#78BE20" d="M141.7 301.7c-13-13-10.5-47.1 5.6-76s40.1-41.5 53.1-28.5 10.5 47.1-5.6 76-40.1 41.5-53.1 28.5z"/>
  <path fill="#78BE20" d="M370.3 301.7c13-13 10.5-47.1-5.6-76s-40.1-41.5-53.1-28.5-10.5 47.1 5.6 76 40.1 41.5 53.1 28.5z"/>
</svg>
